<?xml version="1.0" encoding="UTF-8" standalone="no"?>
<!-- Created with Inkscape (http://www.inkscape.org/) -->

<svg
   xmlns:dc="http://purl.org/dc/elements/1.1/"
   xmlns:cc="http://creativecommons.org/ns#"
   xmlns:rdf="http://www.w3.org/1999/02/22-rdf-syntax-ns#"
   xmlns:svg="http://www.w3.org/2000/svg"
   xmlns="http://www.w3.org/2000/svg"
   xmlns:sodipodi="http://sodipodi.sourceforge.net/DTD/sodipodi-0.dtd"
   xmlns:inkscape="http://www.inkscape.org/namespaces/inkscape"
   width="32"
   height="32"
   viewBox="0 0 31.999999 32.000001"
   id="svg2"
   version="1.1"
   inkscape:version="0.91 r"
   sodipodi:docname="draft_small.svg">
  <defs
     id="defs4" />
  <sodipodi:namedview
     id="base"
     pagecolor="#ffffff"
     bordercolor="#666666"
     borderopacity="1.0"
     inkscape:pageopacity="0.0"
     inkscape:pageshadow="2"
     inkscape:zoom="22.627417"
     inkscape:cx="11.65827"
     inkscape:cy="21.11538"
     inkscape:document-units="px"
     inkscape:current-layer="layer1"
     showgrid="false"
     units="px"
     inkscape:window-width="1916"
     inkscape:window-height="1143"
     inkscape:window-x="1680"
     inkscape:window-y="36"
     inkscape:window-maximized="0" />
  <metadata
     id="metadata7">
    <rdf:RDF>
      <cc:Work
         rdf:about="">
        <dc:format>image/svg+xml</dc:format>
        <dc:type
           rdf:resource="http://purl.org/dc/dcmitype/StillImage" />
        <dc:title></dc:title>
      </cc:Work>
    </rdf:RDF>
  </metadata>
  <g
     inkscape:label="Layer 1"
     inkscape:groupmode="layer"
     id="layer1"
     transform="translate(0,-1020.3621)">
    <rect
       style="opacity:0.8;fill:#dd0005;fill-opacity:1;fill-rule:evenodd;stroke:none;stroke-width:2;stroke-linecap:round;stroke-linejoin:round;stroke-miterlimit:4;stroke-dasharray:none;stroke-dashoffset:0;stroke-opacity:1"
       id="rect4136"
       width="31.964304"
       height="13.452072"
       x="0.017847061"
       y="1029.6361"
       ry="8.2938806e-07" />
    <g
       transform="matrix(0.40286891,0,0,0.78947298,-33.567361,158.81303)"
       id="layer1-8"
       inkscape:label="Layer 1">
      <g
         transform="matrix(1.9439022,0,0,1.9439022,2.4652784,-950.48444)"
         id="g4278">
        <flowRoot
           xml:space="preserve"
           id="flowRoot4136"
           style="font-style:normal;font-weight:normal;font-size:92.01269531px;line-height:125%;font-family:Sans;letter-spacing:0px;word-spacing:0px;fill:#dd0005;fill-opacity:1;stroke:none;stroke-width:1px;stroke-linecap:butt;stroke-linejoin:miter;stroke-opacity:1"
           transform="matrix(0.16754645,0,0,0.16754645,-14.841478,968.72793)"><flowRegion
             id="flowRegion4138"><rect
               id="rect4140"
               width="1038.429"
               height="854.40363"
               x="101.71429"
               y="211.39531"
               style="fill:#dd0005;fill-opacity:1" /></flowRegion><flowPara
             id="flowPara4144"
             style="font-style:normal;font-variant:normal;font-weight:normal;font-stretch:normal;font-size:207.02856445px;font-family:'Old Stamper';-inkscape-font-specification:'Old Stamper';fill:#dd0005;fill-opacity:1">DRAFT</flowPara></flowRoot>        <path
           inkscape:connector-curvature="0"
           id="path4175"
           style="font-style:normal;font-variant:normal;font-weight:normal;font-stretch:normal;font-size:34.68690109px;line-height:125%;font-family:'Old Stamper';-inkscape-font-specification:'Old Stamper';letter-spacing:0px;word-spacing:0px;fill:#dd0005;fill-opacity:1;stroke:none;stroke-width:1px;stroke-linecap:butt;stroke-linejoin:miter;stroke-opacity:1"
           d="m -0.08819442,1015.9014 -0.38960001,0.5071 0,0.7498 0.2033,0.7719 -0.2033,1.2569 0,1.2789 0.38960001,2.0287 -0.57590001,1.0144 0.1863,2.2714 0,0.5072 -0.1863,0 0.1863,1.7862 0,4.0574 0.38960001,1.5215 c -0.12420001,2.1023 -0.31620001,3.2856 -0.57590001,3.5504 l 0.57590001,1.0143 c -0.12420001,1.8523 -0.31620001,2.7784 -0.57590001,2.7784 l -1.76139997,0 0,-0.2426 0.2031999,-2.0287 -0.3895,-2.5358 0.1863001,-1.5217 0,-0.2645 -0.1863001,-1.7642 0.3895,-7.8723 -0.2031999,-2.2714 0.2031999,-2.5358 -0.2031999,-1.0144 0.2031999,-2.536 -0.2031999,-2.0287 0.2031999,-0.7718 -0.3895,-1.5215 0.1863001,-2.2713 0,-1.279 0.5927999,-0.7497 0.5758001,0 c 0.45169997,0 0.77909997,1.6906 0.98239997,5.0718 l -0.2033,1.2569 z"
           sodipodi:nodetypes="ccccccccccccccccsccccccccccccccccccsccc" />
        <path
           inkscape:connector-curvature="0"
           id="path4175-3-1"
           style="font-style:normal;font-variant:normal;font-weight:normal;font-stretch:normal;font-size:34.68690109px;line-height:125%;font-family:'Old Stamper';-inkscape-font-specification:'Old Stamper';letter-spacing:0px;word-spacing:0px;fill:#dd0005;fill-opacity:1;stroke:none;stroke-width:1px;stroke-linecap:butt;stroke-linejoin:miter;stroke-opacity:1"
           d="m -2.0478415,1041.8811 -0.2699,-0.3896 c 0,0 -0.5342909,-0.7189 1.0797,-1.9477 l 0.4107,0.2031 0.8098,-0.3895 1.2087,0.1864 0.6807,0 0.399,0.5927 0,0.5759 c 0,0.4517 -0.8997,0.7791 -2.6992,0.9824 l -0.6689,-0.2033 z"
           sodipodi:nodetypes="ccccccccsccc" />
        <path
           inkscape:connector-curvature="0"
           id="path4175-3-1-1"
           style="font-style:normal;font-variant:normal;font-weight:normal;font-stretch:normal;font-size:34.68690109px;line-height:125%;font-family:'Old Stamper';-inkscape-font-specification:'Old Stamper';letter-spacing:0px;word-spacing:0px;fill:#dd0005;fill-opacity:1;stroke:none;stroke-width:1px;stroke-linecap:butt;stroke-linejoin:miter;stroke-opacity:1"
           d="m 2.071296,1009.249 0.2699,-0.3069 c 0,0 0.5342909,-0.5663 -1.0797,-1.5343 l -0.41070003,0.16 -0.8098,-0.3068 -1.20869997,0.1468 -0.6807,0 -0.399,0.4669 0,0.4537 c 0,0.3558 0.8997,0.6137 2.69919997,0.7738 l 0.66890003,-0.1601 z"
           sodipodi:nodetypes="ccccccccsccc" />
        <path
           inkscape:connector-curvature="0"
           id="path4175-1"
           style="font-style:normal;font-variant:normal;font-weight:normal;font-stretch:normal;font-size:34.68690109px;line-height:125%;font-family:'Old Stamper';-inkscape-font-specification:'Old Stamper';letter-spacing:0px;word-spacing:0px;fill:#dd0005;fill-opacity:1;stroke:none;stroke-width:1px;stroke-linecap:butt;stroke-linejoin:miter;stroke-opacity:1"
           d="m 117.9362,1015.9669 0.3896,0.5071 0,0.7498 -0.2033,0.7719 0.2033,1.2569 0,1.2789 -0.3896,2.0287 0.5759,1.0144 -0.1863,2.2714 0,0.5072 0.1863,0 -0.1863,1.7862 0,4.0574 -0.3896,1.5215 c 0.1242,2.1023 0.3162,3.2856 0.5759,3.5504 l -0.5759,1.0143 c 0.1242,1.8523 0.3162,2.7784 0.5759,2.7784 l 1.7614,0 0,-0.2426 -0.2032,-2.0287 0.3895,-2.5358 -0.1863,-1.5217 0,-0.2645 0.1863,-1.7642 -0.3895,-7.8723 0.2032,-2.2714 -0.2032,-2.5358 0.2032,-1.0144 -0.2032,-2.536 0.2032,-2.0287 -0.2032,-0.7718 0.3895,-1.5215 -0.1863,-2.2713 0,-1.279 -0.5928,-0.7497 -0.5758,0 c -0.4517,0 -0.7791,1.6906 -0.9824,5.0718 l 0.2033,1.2569 z"
           sodipodi:nodetypes="ccccccccccccccccsccccccccccccccccccsccc" />
        <path
           inkscape:connector-curvature="0"
           id="path4175-3-1-1-7"
           style="font-style:normal;font-variant:normal;font-weight:normal;font-stretch:normal;font-size:34.68690109px;line-height:125%;font-family:'Old Stamper';-inkscape-font-specification:'Old Stamper';letter-spacing:0px;word-spacing:0px;fill:#dd0005;fill-opacity:1;stroke:none;stroke-width:1px;stroke-linecap:butt;stroke-linejoin:miter;stroke-opacity:1"
           d="m 119.28597,1040.9818 0.2699,-0.3069 c 0,0 0.5343,-0.5663 -1.0797,-1.5343 l -0.4107,0.16 -0.8098,-0.3068 -1.2087,0.1468 -0.6807,0 -0.399,0.4669 0,0.4537 c 0,0.3558 0.8997,0.6137 2.6992,0.7738 l 0.6689,-0.1601 z"
           sodipodi:nodetypes="ccccccccsccc" />
        <path
           inkscape:connector-curvature="0"
           id="path4175-3-1-1-7-4"
           style="font-style:normal;font-variant:normal;font-weight:normal;font-stretch:normal;font-size:34.68690109px;line-height:125%;font-family:'Old Stamper';-inkscape-font-specification:'Old Stamper';letter-spacing:0px;word-spacing:0px;fill:#dd0005;fill-opacity:1;stroke:none;stroke-width:1px;stroke-linecap:butt;stroke-linejoin:miter;stroke-opacity:1"
           d="m 116.07957,1009.2884 -0.2699,-0.3069 c 0,0 -0.5343,-0.5663 1.0797,-1.5343 l 0.4107,0.16 0.8098,-0.3068 1.2087,0.1468 0.6807,0 0.399,0.4669 0,0.4537 c 0,0.3558 -0.8997,0.6137 -2.6992,0.7738 l -0.6689,-0.1601 z"
           sodipodi:nodetypes="ccccccccsccc" />
      </g>
    </g>
    <flowRoot
       xml:space="preserve"
       id="flowRoot4266"
       style="font-style:normal;font-weight:normal;font-size:12.5px;line-height:125%;font-family:Sans;letter-spacing:0px;word-spacing:0px;fill:#000000;fill-opacity:1;stroke:none;stroke-width:1px;stroke-linecap:butt;stroke-linejoin:miter;stroke-opacity:1"
       transform="translate(48.220829,1089.8831)"><flowRegion
         id="flowRegion4268"><rect
           id="rect4270"
           width="142.32143"
           height="98.75"
           x="-46.42857"
           y="-61.035713"
           style="font-size:12.5px" /></flowRegion><flowPara
         id="flowPara4272"
         style="font-style:normal;font-variant:normal;font-weight:500;font-stretch:normal;font-size:11.25px;font-family:Ubuntu;-inkscape-font-specification:'Ubuntu Medium';fill:#ffffff;fill-opacity:1">BETA</flowPara></flowRoot>  </g>
</svg>
