<?xml version="1.0" encoding="UTF-8" standalone="no"?>
<svg
   xmlns:dc="http://purl.org/dc/elements/1.1/"
   xmlns:cc="http://creativecommons.org/ns#"
   xmlns:rdf="http://www.w3.org/1999/02/22-rdf-syntax-ns#"
   xmlns:svg="http://www.w3.org/2000/svg"
   xmlns="http://www.w3.org/2000/svg"
   xmlns:sodipodi="http://sodipodi.sourceforge.net/DTD/sodipodi-0.dtd"
   xmlns:inkscape="http://www.inkscape.org/namespaces/inkscape"
   fill="#000000"
   height="36"
   viewBox="0 0 24 24"
   width="36"
   id="svg25549"
   version="1.1"
   inkscape:version="0.91 r"
   sodipodi:docname="ic_add_alert.svg">
  <metadata
     id="metadata25559">
    <rdf:RDF>
      <cc:Work
         rdf:about="">
        <dc:format>image/svg+xml</dc:format>
        <dc:type
           rdf:resource="http://purl.org/dc/dcmitype/StillImage" />
        <dc:title></dc:title>
      </cc:Work>
    </rdf:RDF>
  </metadata>
  <defs
     id="defs25557" />
  <sodipodi:namedview
     pagecolor="#ffffff"
     bordercolor="#666666"
     borderopacity="1"
     objecttolerance="10"
     gridtolerance="10"
     guidetolerance="10"
     inkscape:pageopacity="0"
     inkscape:pageshadow="2"
     inkscape:window-width="1916"
     inkscape:window-height="1107"
     id="namedview25555"
     showgrid="false"
     inkscape:zoom="6.5555556"
     inkscape:cx="-15.483051"
     inkscape:cy="18"
     inkscape:window-x="1680"
     inkscape:window-y="72"
     inkscape:window-maximized="0"
     inkscape:current-layer="svg25549" />
  <path
     d="M0 0h24v24H0V0z"
     fill="none"
     id="path25551" />
  <path
     d="m 10.408,19.308 c 0,0.88 0.712,1.592 1.592,1.592 0.88,0 1.592,-0.712 1.592,-1.592 z m 7.096,-3.352 0,-4.656 c 0,-2.6 -1.8,-4.776 -4.232,-5.352 l 0,-0.576 C 13.272,4.668 12.704,4.1 12,4.1 c -0.704,0 -1.272,0.568 -1.272,1.272 l 0,0.576 C 8.296,6.524 6.496,8.7 6.496,11.3 l 0,4.656 -1.696,1.696 0,0.848 14.4,0 0,-0.848 z"
     id="path25553"
     inkscape:connector-curvature="0"
     sodipodi:nodetypes="cscccscssscscccccc"
     style="fill:#3b77e7;fill-opacity:1" />
</svg>
