<?xml version="1.0" encoding="UTF-8" standalone="no"?>
<svg
   xmlns:dc="http://purl.org/dc/elements/1.1/"
   xmlns:cc="http://creativecommons.org/ns#"
   xmlns:rdf="http://www.w3.org/1999/02/22-rdf-syntax-ns#"
   xmlns:svg="http://www.w3.org/2000/svg"
   xmlns="http://www.w3.org/2000/svg"
   xmlns:sodipodi="http://sodipodi.sourceforge.net/DTD/sodipodi-0.dtd"
   xmlns:inkscape="http://www.inkscape.org/namespaces/inkscape"
   fill="#000000"
   height="36"
   viewBox="0 0 24 24"
   width="36"
   id="svg2"
   version="1.1"
   inkscape:version="0.91 r"
   sodipodi:docname="ic_alert_white.svg">
  <metadata
     id="metadata12">
    <rdf:RDF>
      <cc:Work
         rdf:about="">
        <dc:format>image/svg+xml</dc:format>
        <dc:type
           rdf:resource="http://purl.org/dc/dcmitype/StillImage" />
        <dc:title></dc:title>
      </cc:Work>
    </rdf:RDF>
  </metadata>
  <defs
     id="defs10" />
  <sodipodi:namedview
     pagecolor="#ffffff"
     bordercolor="#666666"
     borderopacity="1"
     objecttolerance="10"
     gridtolerance="10"
     guidetolerance="10"
     inkscape:pageopacity="0"
     inkscape:pageshadow="2"
     inkscape:window-width="1362"
     inkscape:window-height="711"
     id="namedview8"
     showgrid="false"
     inkscape:zoom="6.5555556"
     inkscape:cx="-0.15254263"
     inkscape:cy="18"
     inkscape:window-x="0"
     inkscape:window-y="36"
     inkscape:window-maximized="0"
     inkscape:current-layer="svg2" />
  <path
     d="M0 0h24v24H0V0z"
     fill="none"
     id="path4" />
  <path
     style="fill:none"
     inkscape:connector-curvature="0"
     d="m 2.4,2.4 19.2,0 0,19.2 -19.2,0 0,-19.2 z"
     id="path4502" />
  <path
     style="fill:#ffffff;fill-opacity:1"
     inkscape:connector-curvature="0"
     d="m 10.408,19.208 c 0,0.88 0.712,1.592 1.592,1.592 0.88,0 1.592,-0.712 1.592,-1.592 l -3.184,0 z m 7.096,-3.352 0,-4.656 c 0,-2.6 -1.8,-4.776 -4.232,-5.352 l 0,-0.576 C 13.272,4.568 12.704,4 12,4 11.296,4 10.728,4.568 10.728,5.272 l 0,0.576 C 8.296,6.424 6.496,8.6 6.496,11.2 l 0,4.656 -1.696,1.696 0,0.848 14.4,0 0,-0.848 -1.696,-1.696 z m -2.304,-3.048 -2.4,0 0,2.4 -1.6,0 0,-2.4 -2.4,0 0,-1.608 2.4,0 0,-2.4 1.6,0 0,2.4 2.4,0 0,1.608 z"
     id="path4504" />
</svg>
