<?xml version="1.0" encoding="UTF-8" standalone="no"?>
<svg
   xmlns:dc="http://purl.org/dc/elements/1.1/"
   xmlns:cc="http://creativecommons.org/ns#"
   xmlns:rdf="http://www.w3.org/1999/02/22-rdf-syntax-ns#"
   xmlns:svg="http://www.w3.org/2000/svg"
   xmlns="http://www.w3.org/2000/svg"
   xmlns:sodipodi="http://sodipodi.sourceforge.net/DTD/sodipodi-0.dtd"
   xmlns:inkscape="http://www.inkscape.org/namespaces/inkscape"
   fill="#000000"
   height="36"
   viewBox="0 0 24 24"
   width="36"
   id="svg4854"
   version="1.1"
   inkscape:version="0.91 r"
   sodipodi:docname="ic_chart.svg">
  <metadata
     id="metadata4864">
    <rdf:RDF>
      <cc:Work
         rdf:about="">
        <dc:format>image/svg+xml</dc:format>
        <dc:type
           rdf:resource="http://purl.org/dc/dcmitype/StillImage" />
        <dc:title></dc:title>
      </cc:Work>
    </rdf:RDF>
  </metadata>
  <defs
     id="defs4862" />
  <sodipodi:namedview
     pagecolor="#ffffff"
     bordercolor="#666666"
     borderopacity="1"
     objecttolerance="10"
     gridtolerance="10"
     guidetolerance="10"
     inkscape:pageopacity="0"
     inkscape:pageshadow="2"
     inkscape:window-width="1916"
     inkscape:window-height="1107"
     id="namedview4860"
     showgrid="false"
     inkscape:zoom="6.5555556"
     inkscape:cx="-15.483051"
     inkscape:cy="18"
     inkscape:window-x="1680"
     inkscape:window-y="72"
     inkscape:window-maximized="0"
     inkscape:current-layer="svg4854" />
  <path
     d="M 17.6,4.8 6.4,4.8 C 5.52,4.8 4.8,5.52 4.8,6.4 l 0,11.2 c 0,0.88 0.72,1.6 1.6,1.6 l 11.2,0 c 0.88,0 1.6,-0.72 1.6,-1.6 l 0,-11.2 C 19.2,5.52 18.48,4.8 17.6,4.8 Z M 9.6,16 8,16 l 0,-5.6 1.6,0 0,5.6 z m 3.2,0 -1.6,0 0,-8 1.6,0 0,8 z m 3.2,0 -1.6,0 0,-3.2 1.6,0 0,3.2 z"
     id="path4856"
     inkscape:connector-curvature="0"
     style="fill:#3b77e7;fill-opacity:1" />
  <path
     d="M0 0h24v24H0z"
     fill="none"
     id="path4858" />
</svg>
